<svg width="24" height="27" viewBox="0 0 24 27" fill="none" xmlns="http://www.w3.org/2000/svg">
<path d="M15.0818 0C14.8546 0.734551 14.591 1.4385 14.4274 2.15774C12.5082 8.2484 16.6619 11.9458 18.8267 14.1095C19.7629 11.8905 19.7538 9.65629 19.0812 7.36847C19.1903 7.49089 19.3084 7.60566 19.4175 7.72809C20.7537 9.2584 21.9898 10.8423 22.8352 12.6098C23.8168 14.6757 24.3259 16.7952 23.7714 19.0142C23.1988 21.3326 21.6808 23.1766 19.563 24.661C13.333 29.0644 2.72071 27.1275 0.356832 19.8864C-0.206717 18.1572 -0.0703745 16.4203 0.538622 14.7216C0.902202 13.7116 1.3385 12.7016 1.92023 11.7758C2.68374 10.5515 3.61996 9.41144 4.54709 8.2484C4.52891 9.64864 4.67435 10.9571 6.17411 11.9594C6 9 7.17749 6.28668 9.40089 3.99412C11.0097 2.37199 12.9458 1.10183 15.0818 0Z" fill="#DD3831"/>
</svg>
