<svg width="95" height="114" viewBox="0 0 95 114" fill="none" xmlns="http://www.w3.org/2000/svg">
<g filter="url(#filter0_d_2002_4623)">
<path d="M31.4769 65.1634C25.7242 64.2998 18.4269 71.2806 15.4973 74.879C17.3131 73.0798 22.0923 69.2655 26.683 68.4019C31.2737 67.5383 34.455 72.3601 35.4718 74.879L41.0646 84.5947H45.8585L37.0697 72.72C37.6024 70.561 37.2295 66.027 31.4769 65.1634Z" fill="white"/>
<path d="M48.2554 91.0717L46.6575 87.8332L57.0442 93.2308C59.2878 89.1995 70.6268 83.5151 71.4258 82.4356C74.6217 75.9585 81.0135 71.6405 78.6166 74.879C76.699 77.4699 75.687 84.5947 75.4207 87.8332L71.4258 88.9127L61.838 95.3898L56.2452 98.6283L48.2554 91.0717Z" fill="white"/>
<path d="M32.6066 18.988L45.3902 15.7495L36.6014 20.0675L32.6066 23.3061L40.5963 31.9422L50.1841 28.7036L60.5708 31.9422H50.1841L40.5963 36.2602L31.8076 27.6241L27.0137 26.5446L32.6066 18.988Z" fill="white"/>
</g>
<defs>
<filter id="filter0_d_2002_4623" x="0.621614" y="0.873751" width="93.3967" height="112.63" filterUnits="userSpaceOnUse" color-interpolation-filters="sRGB">
<feFlood flood-opacity="0" result="BackgroundImageFix"/>
<feColorMatrix in="SourceAlpha" type="matrix" values="0 0 0 0 0 0 0 0 0 0 0 0 0 0 0 0 0 0 127 0" result="hardAlpha"/>
<feOffset/>
<feGaussianBlur stdDeviation="7.43785"/>
<feComposite in2="hardAlpha" operator="out"/>
<feColorMatrix type="matrix" values="0 0 0 0 1 0 0 0 0 0.885105 0 0 0 0 0.779785 0 0 0 1 0"/>
<feBlend mode="normal" in2="BackgroundImageFix" result="effect1_dropShadow_2002_4623"/>
<feBlend mode="normal" in="SourceGraphic" in2="effect1_dropShadow_2002_4623" result="shape"/>
</filter>
</defs>
</svg>
